<svg xmlns="http://www.w3.org/2000/svg" viewBox="0 0 512 512">
    <!-- 背景圆形 -->
    <circle cx="256" cy="256" r="200" fill="#317EFB"/>

    <!-- 计算器主体 -->
    <rect x="156" y="156" width="200" height="250" rx="10" fill="white"/>

    <!-- 显示屏 -->
    <rect x="176" y="176" width="160" height="40" rx="5" fill="#E8F0FE"/>

    <!-- 显示内容 - "¥"符号 -->
    <text x="196" y="206" font-family="Arial" font-size="20" font-weight="bold" fill="#317EFB">¥</text>

    <!-- 显示内容 - 数字 -->
    <text x="216" y="206" font-family="Arial" font-size="20" font-weight="bold" fill="#333">0.00</text>

    <!-- 按钮 -->
    <rect x="176" y="236" width="40" height="40" rx="5" fill="#F8F9FA"/>
    <rect x="226" y="236" width="40" height="40" rx="5" fill="#F8F9FA"/>
    <rect x="276" y="236" width="40" height="40" rx="5" fill="#F8F9FA"/>

    <rect x="176" y="286" width="40" height="40" rx="5" fill="#F8F9FA"/>
    <rect x="226" y="286" width="40" height="40" rx="5" fill="#F8F9FA"/>
    <rect x="276" y="286" width="40" height="40" rx="5" fill="#F8F9FA"/>

    <rect x="176" y="336" width="40" height="40" rx="5" fill="#F8F9FA"/>
    <rect x="226" y="336" width="40" height="40" rx="5" fill="#F8F9FA"/>
    <rect x="276" y="336" width="40" height="40" rx="5" fill="#317EFB"/>

    <!-- 时钟图案 -->
    <circle cx="380" cy="120" r="40" fill="white"/>
    <circle cx="380" cy="120" r="35" fill="#E8F0FE"/>
    <circle cx="380" cy="120" r="5" fill="#317EFB"/>
    <line x1="380" y1="120" x2="380" y2="90" stroke="#317EFB" stroke-width="3"/>
    <line x1="380" y1="120" x2="400" y2="125" stroke="#317EFB" stroke-width="2"/>
</svg>